<svg viewBox="0 0 65 65" fill="none" xmlns="http://www.w3.org/2000/svg">
<path d="M1.86778e-06 -5.68248e-06L-3.8147e-06 65L51 65L65 50L65 0L1.86778e-06 -5.68248e-06Z" fill="#ECE544"/>
<path d="M51 50H65L51 65V50Z" fill="#DED616"/>
<rect x="65" y="9" width="65" height="9" transform="rotate(-180 65 9)" fill="#DED616"/>
<path d="M29.0186 40.791C29.0485 39.0091 29.2507 37.6016 29.625 36.5684C29.9993 35.5352 30.763 34.3896 31.916 33.1318L34.8584 30.0996C36.1162 28.6771 36.7451 27.1497 36.7451 25.5176C36.7451 23.9453 36.3333 22.7174 35.5098 21.834C34.6862 20.9355 33.4883 20.4863 31.916 20.4863C30.3887 20.4863 29.1608 20.8906 28.2324 21.6992C27.304 22.5078 26.8398 23.5934 26.8398 24.9561H22.6846C22.7145 22.5303 23.5755 20.5762 25.2676 19.0938C26.9746 17.5964 29.1908 16.8477 31.916 16.8477C34.7461 16.8477 36.9473 17.6113 38.5195 19.1387C40.1068 20.651 40.9004 22.7324 40.9004 25.3828C40.9004 28.0033 39.6875 30.5863 37.2617 33.1318L34.8135 35.5576C33.7204 36.7705 33.1738 38.515 33.1738 40.791H29.0186ZM28.8389 47.9111C28.8389 47.2373 29.041 46.6758 29.4453 46.2266C29.8646 45.7624 30.4785 45.5303 31.2871 45.5303C32.0957 45.5303 32.7096 45.7624 33.1289 46.2266C33.5482 46.6758 33.7578 47.2373 33.7578 47.9111C33.7578 48.585 33.5482 49.1465 33.1289 49.5957C32.7096 50.0299 32.0957 50.2471 31.2871 50.2471C30.4785 50.2471 29.8646 50.0299 29.4453 49.5957C29.041 49.1465 28.8389 48.585 28.8389 47.9111Z" fill="#4D69FA"/>
</svg>
