<svg width="65" height="65" viewBox="0 0 65 65" fill="none" xmlns="http://www.w3.org/2000/svg">
<path d="M5.68248e-06 -5.68248e-06L0 65L51 65L65 50L65 0L5.68248e-06 -5.68248e-06Z" fill="#ECE544"/>
<path d="M51 50H65L51 65V50Z" fill="#DED616"/>
<rect x="65" y="9" width="65" height="9" transform="rotate(-180 65 9)" fill="#DED616"/>
<path d="M33.558 19.18C36.5327 19.18 38.9553 19.8853 40.826 21.296C42.6967 22.7067 43.632 24.608 43.632 27C43.632 29.5453 42.8347 31.5387 41.24 32.98C39.6453 34.3907 37.56 35.234 34.984 35.51V40.432H31.166V33.532C34.2633 33.072 36.4713 32.382 37.79 31.462C39.1087 30.542 39.768 29.208 39.768 27.46C39.768 25.9573 39.216 24.7767 38.112 23.918C37.008 23.0593 35.398 22.63 33.282 22.63C31.258 22.63 29.602 23.1973 28.314 24.332C27.0567 25.436 26.3053 26.954 26.06 28.886L22.794 27C23.3153 24.608 24.5267 22.7067 26.428 21.296C28.3293 19.8853 30.706 19.18 33.558 19.18ZM33.006 44.48C33.8953 44.48 34.616 44.756 35.168 45.308C35.72 45.86 35.996 46.5807 35.996 47.47C35.996 48.3593 35.72 49.08 35.168 49.632C34.616 50.184 33.8953 50.46 33.006 50.46C32.1167 50.46 31.396 50.184 30.844 49.632C30.292 49.08 30.016 48.3593 30.016 47.47C30.016 46.5807 30.292 45.86 30.844 45.308C31.396 44.756 32.1167 44.48 33.006 44.48Z" fill="#4D69FA"/>
</svg>
